<?xml version="1.0" encoding="UTF-8" standalone="no"?>
<!DOCTYPE svg PUBLIC "-//W3C//DTD SVG 1.1//EN"
 "http://www.w3.org/Graphics/SVG/1.1/DTD/svg11.dtd">
<!-- Generated by graphviz version 2.40.1 (20161225.0304)
 -->
<!-- Title: dag Pages: 1 -->
<svg width="538pt" height="1166pt"
 viewBox="0.00 0.00 537.83 1166.00" xmlns="http://www.w3.org/2000/svg" xmlns:xlink="http://www.w3.org/1999/xlink">
<g id="graph0" class="graph" transform="scale(1 1) rotate(0) translate(4 1162)">
<title>dag</title>
<polygon fill="#ffffff" stroke="transparent" points="-4,4 -4,-1162 533.8276,-1162 533.8276,4 -4,4"/>
<!-- p0 -->
<g id="node1" class="node">
<title>p0</title>
<ellipse fill="#000000" stroke="#000000" cx="227.139" cy="-1139.4" rx="3.6" ry="3.6"/>
<text text-anchor="middle" x="173.539" y="-1146.8" font-family="Times,serif" font-size="14.00" fill="#000000">Channel.fromPath</text>
</g>
<!-- p1 -->
<g id="node2" class="node">
<title>p1</title>
<ellipse fill="none" stroke="#000000" cx="227.139" cy="-1095.3" rx="3.5" ry="3.5"/>
<text text-anchor="middle" x="201.139" y="-1102.6" font-family="Times,serif" font-size="14.00" fill="#000000">splitCsv</text>
</g>
<!-- p0&#45;&gt;p1 -->
<g id="edge1" class="edge">
<title>p0&#45;&gt;p1</title>
<path fill="none" stroke="#000000" d="M227.139,-1135.6401C227.139,-1129.8469 227.139,-1118.444 227.139,-1109.2354"/>
<polygon fill="#000000" stroke="#000000" points="230.6391,-1109.0504 227.139,-1099.0504 223.6391,-1109.0505 230.6391,-1109.0504"/>
</g>
<!-- p2 -->
<g id="node3" class="node">
<title>p2</title>
<ellipse fill="none" stroke="#000000" cx="227.139" cy="-1051.3" rx="3.5" ry="3.5"/>
<text text-anchor="middle" x="211.139" y="-1058.6" font-family="Times,serif" font-size="14.00" fill="#000000">map</text>
</g>
<!-- p1&#45;&gt;p2 -->
<g id="edge2" class="edge">
<title>p1&#45;&gt;p2</title>
<path fill="none" stroke="#000000" d="M227.139,-1091.5486C227.139,-1085.7686 227.139,-1074.3915 227.139,-1065.2038"/>
<polygon fill="#000000" stroke="#000000" points="230.6391,-1065.0419 227.139,-1055.0419 223.6391,-1065.042 230.6391,-1065.0419"/>
</g>
<!-- p3 -->
<g id="node4" class="node">
<title>p3</title>
<ellipse fill="none" stroke="#000000" cx="227.139" cy="-978.8" rx="172.7694" ry="18"/>
<text text-anchor="middle" x="227.139" y="-975.1" font-family="Times,serif" font-size="14.00" fill="#000000">BCR_COUNTS:TRIM_COMBINE_MATES</text>
</g>
<!-- p2&#45;&gt;p3 -->
<g id="edge3" class="edge">
<title>p2&#45;&gt;p3</title>
<path fill="none" stroke="#000000" d="M227.139,-1047.4021C227.139,-1039.8027 227.139,-1022.403 227.139,-1007.0295"/>
<polygon fill="#000000" stroke="#000000" points="230.6391,-1006.8553 227.139,-996.8553 223.6391,-1006.8553 230.6391,-1006.8553"/>
<text text-anchor="middle" x="247.139" y="-1018.6" font-family="Times,serif" font-size="14.00" fill="#000000">filepair</text>
</g>
<!-- p4 -->
<g id="node5" class="node">
<title>p4</title>
<ellipse fill="none" stroke="#000000" cx="227.139" cy="-905.8" rx="168.97" ry="18"/>
<text text-anchor="middle" x="227.139" y="-902.1" font-family="Times,serif" font-size="14.00" fill="#000000">BCR_COUNTS:DEMULTIPLEX_PLATES</text>
</g>
<!-- p3&#45;&gt;p4 -->
<g id="edge4" class="edge">
<title>p3&#45;&gt;p4</title>
<path fill="none" stroke="#000000" d="M227.139,-960.7551C227.139,-952.6828 227.139,-942.9764 227.139,-933.9817"/>
<polygon fill="#000000" stroke="#000000" points="230.6391,-933.8903 227.139,-923.8904 223.6391,-933.8904 230.6391,-933.8903"/>
</g>
<!-- p5 -->
<g id="node6" class="node">
<title>p5</title>
<ellipse fill="none" stroke="#000000" cx="227.139" cy="-847.3" rx="3.5" ry="3.5"/>
<text text-anchor="middle" x="197.639" y="-854.6" font-family="Times,serif" font-size="14.00" fill="#000000">transpose</text>
</g>
<!-- p4&#45;&gt;p5 -->
<g id="edge5" class="edge">
<title>p4&#45;&gt;p5</title>
<path fill="none" stroke="#000000" d="M227.139,-887.6109C227.139,-879.1587 227.139,-869.2613 227.139,-861.389"/>
<polygon fill="#000000" stroke="#000000" points="230.6391,-861.1836 227.139,-851.1837 223.6391,-861.1837 230.6391,-861.1836"/>
</g>
<!-- p6 -->
<g id="node7" class="node">
<title>p6</title>
<ellipse fill="none" stroke="#000000" cx="227.139" cy="-803.3" rx="3.5" ry="3.5"/>
<text text-anchor="middle" x="210.139" y="-810.6" font-family="Times,serif" font-size="14.00" fill="#000000">filter</text>
</g>
<!-- p5&#45;&gt;p6 -->
<g id="edge6" class="edge">
<title>p5&#45;&gt;p6</title>
<path fill="none" stroke="#000000" d="M227.139,-843.5486C227.139,-837.7686 227.139,-826.3915 227.139,-817.2038"/>
<polygon fill="#000000" stroke="#000000" points="230.6391,-817.0419 227.139,-807.0419 223.6391,-817.042 230.6391,-817.0419"/>
</g>
<!-- p7 -->
<g id="node8" class="node">
<title>p7</title>
<ellipse fill="none" stroke="#000000" cx="227.139" cy="-730.8" rx="166.2706" ry="18"/>
<text text-anchor="middle" x="227.139" y="-727.1" font-family="Times,serif" font-size="14.00" fill="#000000">BCR_COUNTS:DEMULTIPLEX_WELLS</text>
</g>
<!-- p6&#45;&gt;p7 -->
<g id="edge7" class="edge">
<title>p6&#45;&gt;p7</title>
<path fill="none" stroke="#000000" d="M227.139,-799.4021C227.139,-791.8027 227.139,-774.403 227.139,-759.0295"/>
<polygon fill="#000000" stroke="#000000" points="230.6391,-758.8553 227.139,-748.8553 223.6391,-758.8553 230.6391,-758.8553"/>
<text text-anchor="middle" x="277.139" y="-770.6" font-family="Times,serif" font-size="14.00" fill="#000000">dmplxd_plates_ch</text>
</g>
<!-- p8 -->
<g id="node9" class="node">
<title>p8</title>
<ellipse fill="none" stroke="#000000" cx="227.139" cy="-672.3" rx="3.5" ry="3.5"/>
<text text-anchor="middle" x="197.639" y="-679.6" font-family="Times,serif" font-size="14.00" fill="#000000">transpose</text>
</g>
<!-- p7&#45;&gt;p8 -->
<g id="edge8" class="edge">
<title>p7&#45;&gt;p8</title>
<path fill="none" stroke="#000000" d="M227.139,-712.6109C227.139,-704.1587 227.139,-694.2613 227.139,-686.389"/>
<polygon fill="#000000" stroke="#000000" points="230.6391,-686.1836 227.139,-676.1837 223.6391,-686.1837 230.6391,-686.1836"/>
</g>
<!-- p9 -->
<g id="node10" class="node">
<title>p9</title>
<ellipse fill="none" stroke="#000000" cx="227.139" cy="-628.2" rx="3.5" ry="3.5"/>
<text text-anchor="middle" x="210.139" y="-635.5" font-family="Times,serif" font-size="14.00" fill="#000000">filter</text>
</g>
<!-- p8&#45;&gt;p9 -->
<g id="edge9" class="edge">
<title>p8&#45;&gt;p9</title>
<path fill="none" stroke="#000000" d="M227.139,-668.5401C227.139,-662.7469 227.139,-651.344 227.139,-642.1354"/>
<polygon fill="#000000" stroke="#000000" points="230.6391,-641.9504 227.139,-631.9504 223.6391,-641.9505 230.6391,-641.9504"/>
</g>
<!-- p12 -->
<g id="node11" class="node">
<title>p12</title>
<ellipse fill="none" stroke="#000000" cx="401.139" cy="-555.6" rx="128.8774" ry="18"/>
<text text-anchor="middle" x="401.139" y="-551.9" font-family="Times,serif" font-size="14.00" fill="#000000">BCR_COUNTS:SPLIT_HEAVY</text>
</g>
<!-- p9&#45;&gt;p12 -->
<g id="edge10" class="edge">
<title>p9&#45;&gt;p12</title>
<path fill="none" stroke="#000000" d="M230.2742,-626.5543C240.5609,-621.1843 274.2783,-603.8165 303.139,-591.6 315.9662,-586.1703 329.9232,-580.7565 343.1759,-575.8382"/>
<polygon fill="#000000" stroke="#000000" points="344.4937,-579.0829 352.6752,-572.3514 342.0816,-572.5116 344.4937,-579.0829"/>
<text text-anchor="middle" x="351.639" y="-595.4" font-family="Times,serif" font-size="14.00" fill="#000000">dmplxd_wells_ch</text>
</g>
<!-- p15 -->
<g id="node15" class="node">
<title>p15</title>
<ellipse fill="none" stroke="#000000" cx="124.139" cy="-555.6" rx="124.2781" ry="18"/>
<text text-anchor="middle" x="124.139" y="-551.9" font-family="Times,serif" font-size="14.00" fill="#000000">BCR_COUNTS:SPLIT_LIGHT</text>
</g>
<!-- p9&#45;&gt;p15 -->
<g id="edge14" class="edge">
<title>p9&#45;&gt;p15</title>
<path fill="none" stroke="#000000" d="M223.6624,-627.5675C214.0864,-625.6981 186.801,-619.5034 168.139,-606.6 158.4181,-599.8788 149.5151,-590.516 142.2991,-581.6449"/>
<polygon fill="#000000" stroke="#000000" points="145.0594,-579.4929 136.1715,-573.7261 139.5233,-583.7768 145.0594,-579.4929"/>
<text text-anchor="middle" x="216.639" y="-595.4" font-family="Times,serif" font-size="14.00" fill="#000000">dmplxd_wells_ch</text>
</g>
<!-- p16 -->
<g id="node14" class="node">
<title>p16</title>
<ellipse fill="none" stroke="#000000" cx="259.139" cy="-497.1" rx="3.5" ry="3.5"/>
<text text-anchor="middle" x="244.639" y="-504.4" font-family="Times,serif" font-size="14.00" fill="#000000">mix</text>
</g>
<!-- p12&#45;&gt;p16 -->
<g id="edge13" class="edge">
<title>p12&#45;&gt;p16</title>
<path fill="none" stroke="#000000" d="M359.685,-538.5221C329.7159,-526.1757 291.1987,-510.3077 271.6798,-502.2665"/>
<polygon fill="#000000" stroke="#000000" points="272.9872,-499.0198 262.4079,-498.4467 270.3208,-505.492 272.9872,-499.0198"/>
</g>
<!-- p10 -->
<g id="node12" class="node">
<title>p10</title>
<ellipse fill="#000000" stroke="#000000" cx="407.139" cy="-628.2" rx="3.6" ry="3.6"/>
</g>
<!-- p10&#45;&gt;p12 -->
<g id="edge11" class="edge">
<title>p10&#45;&gt;p12</title>
<path fill="none" stroke="#000000" d="M406.8164,-624.2967C406.1875,-616.6869 404.7475,-599.2632 403.4752,-583.8684"/>
<polygon fill="#000000" stroke="#000000" points="406.9451,-583.3579 402.6332,-573.6802 399.9688,-583.9345 406.9451,-583.3579"/>
<text text-anchor="middle" x="421.639" y="-595.4" font-family="Times,serif" font-size="14.00" fill="#000000">motif</text>
</g>
<!-- p11 -->
<g id="node13" class="node">
<title>p11</title>
<ellipse fill="#000000" stroke="#000000" cx="461.139" cy="-628.2" rx="3.6" ry="3.6"/>
</g>
<!-- p11&#45;&gt;p12 -->
<g id="edge12" class="edge">
<title>p11&#45;&gt;p12</title>
<path fill="none" stroke="#000000" d="M459.3731,-624.5619C455.9716,-617.7358 448.0542,-602.6967 439.139,-591.6 436.2433,-587.9958 432.9978,-584.4023 429.6558,-580.9577"/>
<polygon fill="#000000" stroke="#000000" points="431.8681,-578.2244 422.284,-573.7081 426.9599,-583.2154 431.8681,-578.2244"/>
<text text-anchor="middle" x="464.139" y="-595.4" font-family="Times,serif" font-size="14.00" fill="#000000">chain</text>
</g>
<!-- p17 -->
<g id="node18" class="node">
<title>p17</title>
<ellipse fill="none" stroke="#000000" cx="259.139" cy="-438.6" rx="176.5689" ry="18"/>
<text text-anchor="middle" x="259.139" y="-434.9" font-family="Times,serif" font-size="14.00" fill="#000000">BCR_COUNTS:COLLAPSE_RANK_PRUNE</text>
</g>
<!-- p16&#45;&gt;p17 -->
<g id="edge18" class="edge">
<title>p16&#45;&gt;p17</title>
<path fill="none" stroke="#000000" d="M259.139,-493.2617C259.139,-487.7711 259.139,-477.1846 259.139,-466.779"/>
<polygon fill="#000000" stroke="#000000" points="262.6391,-466.6292 259.139,-456.6293 255.6391,-466.6293 262.6391,-466.6292"/>
</g>
<!-- p15&#45;&gt;p16 -->
<g id="edge17" class="edge">
<title>p15&#45;&gt;p16</title>
<path fill="none" stroke="#000000" d="M163.5495,-538.5221C191.6497,-526.3454 227.6547,-510.7432 246.4412,-502.6024"/>
<polygon fill="#000000" stroke="#000000" points="247.9047,-505.7827 255.6887,-498.5951 245.1214,-499.3598 247.9047,-505.7827"/>
</g>
<!-- p13 -->
<g id="node16" class="node">
<title>p13</title>
<ellipse fill="#000000" stroke="#000000" cx="113.139" cy="-628.2" rx="3.6" ry="3.6"/>
</g>
<!-- p13&#45;&gt;p15 -->
<g id="edge15" class="edge">
<title>p13&#45;&gt;p15</title>
<path fill="none" stroke="#000000" d="M112.9373,-624.3262C112.6564,-617.6167 112.3634,-603.4176 114.139,-591.6 114.5408,-588.9259 115.0769,-586.1681 115.6929,-583.4247"/>
<polygon fill="#000000" stroke="#000000" points="119.0859,-584.2834 118.1769,-573.7276 112.3048,-582.5463 119.0859,-584.2834"/>
<text text-anchor="middle" x="129.639" y="-595.4" font-family="Times,serif" font-size="14.00" fill="#000000">motif</text>
</g>
<!-- p14 -->
<g id="node17" class="node">
<title>p14</title>
<ellipse fill="#000000" stroke="#000000" cx="60.139" cy="-628.2" rx="3.6" ry="3.6"/>
</g>
<!-- p14&#45;&gt;p15 -->
<g id="edge16" class="edge">
<title>p14&#45;&gt;p15</title>
<path fill="none" stroke="#000000" d="M61.4722,-624.4732C64.0901,-617.4994 70.4163,-602.2238 79.139,-591.6 82.4661,-587.5477 86.3169,-583.6459 90.3374,-580.0027"/>
<polygon fill="#000000" stroke="#000000" points="92.8245,-582.4825 98.1853,-573.344 88.2957,-577.1449 92.8245,-582.4825"/>
<text text-anchor="middle" x="94.139" y="-595.4" font-family="Times,serif" font-size="14.00" fill="#000000">chain</text>
</g>
<!-- p18 -->
<g id="node19" class="node">
<title>p18</title>
<ellipse fill="none" stroke="#000000" cx="259.139" cy="-380.1" rx="3.5" ry="3.5"/>
<text text-anchor="middle" x="223.639" y="-387.4" font-family="Times,serif" font-size="14.00" fill="#000000">groupTuple</text>
</g>
<!-- p17&#45;&gt;p18 -->
<g id="edge19" class="edge">
<title>p17&#45;&gt;p18</title>
<path fill="none" stroke="#000000" d="M259.139,-420.4109C259.139,-411.9587 259.139,-402.0613 259.139,-394.189"/>
<polygon fill="#000000" stroke="#000000" points="262.6391,-393.9836 259.139,-383.9837 255.6391,-393.9837 262.6391,-393.9836"/>
</g>
<!-- p19 -->
<g id="node20" class="node">
<title>p19</title>
<ellipse fill="none" stroke="#000000" cx="259.139" cy="-321.6" rx="128.0773" ry="18"/>
<text text-anchor="middle" x="259.139" y="-317.9" font-family="Times,serif" font-size="14.00" fill="#000000">BCR_COUNTS:MERGE_BCRS</text>
</g>
<!-- p18&#45;&gt;p19 -->
<g id="edge20" class="edge">
<title>p18&#45;&gt;p19</title>
<path fill="none" stroke="#000000" d="M259.139,-376.2617C259.139,-370.7711 259.139,-360.1846 259.139,-349.779"/>
<polygon fill="#000000" stroke="#000000" points="262.6391,-349.6292 259.139,-339.6293 255.6391,-349.6293 262.6391,-349.6292"/>
</g>
<!-- p20 -->
<g id="node21" class="node">
<title>p20</title>
<ellipse fill="none" stroke="#000000" cx="259.139" cy="-248.6" rx="103.1819" ry="18"/>
<text text-anchor="middle" x="259.139" y="-244.9" font-family="Times,serif" font-size="14.00" fill="#000000">PARTIS_ANNOTATION</text>
</g>
<!-- p19&#45;&gt;p20 -->
<g id="edge21" class="edge">
<title>p19&#45;&gt;p20</title>
<path fill="none" stroke="#000000" d="M259.139,-303.5551C259.139,-295.4828 259.139,-285.7764 259.139,-276.7817"/>
<polygon fill="#000000" stroke="#000000" points="262.6391,-276.6903 259.139,-266.6904 255.6391,-276.6904 262.6391,-276.6903"/>
</g>
<!-- p21 -->
<g id="node22" class="node">
<title>p21</title>
<ellipse fill="none" stroke="#000000" cx="259.139" cy="-175.6" rx="89.8845" ry="18"/>
<text text-anchor="middle" x="259.139" y="-171.9" font-family="Times,serif" font-size="14.00" fill="#000000">PARTIS_WRANGLE</text>
</g>
<!-- p20&#45;&gt;p21 -->
<g id="edge22" class="edge">
<title>p20&#45;&gt;p21</title>
<path fill="none" stroke="#000000" d="M259.139,-230.5551C259.139,-222.4828 259.139,-212.7764 259.139,-203.7817"/>
<polygon fill="#000000" stroke="#000000" points="262.6391,-203.6903 259.139,-193.6904 255.6391,-203.6904 262.6391,-203.6903"/>
</g>
<!-- p22 -->
<g id="node23" class="node">
<title>p22</title>
<ellipse fill="none" stroke="#000000" cx="259.139" cy="-117.1" rx="3.5" ry="3.5"/>
<text text-anchor="middle" x="238.139" y="-124.4" font-family="Times,serif" font-size="14.00" fill="#000000">flatten</text>
</g>
<!-- p21&#45;&gt;p22 -->
<g id="edge23" class="edge">
<title>p21&#45;&gt;p22</title>
<path fill="none" stroke="#000000" d="M259.139,-157.4109C259.139,-148.9587 259.139,-139.0613 259.139,-131.189"/>
<polygon fill="#000000" stroke="#000000" points="262.6391,-130.9836 259.139,-120.9837 255.6391,-130.9837 262.6391,-130.9836"/>
</g>
<!-- p23 -->
<g id="node24" class="node">
<title>p23</title>
<ellipse fill="none" stroke="#000000" cx="259.139" cy="-58.6" rx="44.6926" ry="18"/>
<text text-anchor="middle" x="259.139" y="-54.9" font-family="Times,serif" font-size="14.00" fill="#000000">GCTREE</text>
</g>
<!-- p22&#45;&gt;p23 -->
<g id="edge24" class="edge">
<title>p22&#45;&gt;p23</title>
<path fill="none" stroke="#000000" d="M259.139,-113.2617C259.139,-107.7711 259.139,-97.1846 259.139,-86.779"/>
<polygon fill="#000000" stroke="#000000" points="262.6391,-86.6292 259.139,-76.6293 255.6391,-86.6293 262.6391,-86.6292"/>
</g>
<!-- p24 -->
<g id="node25" class="node">
<title>p24</title>
<ellipse fill="#000000" stroke="#000000" cx="259.139" cy="-1.8" rx="1.8" ry="1.8"/>
</g>
<!-- p23&#45;&gt;p24 -->
<g id="edge25" class="edge">
<title>p23&#45;&gt;p24</title>
<path fill="none" stroke="#000000" d="M259.139,-40.3155C259.139,-31.6139 259.139,-21.4551 259.139,-13.756"/>
<polygon fill="#000000" stroke="#000000" points="262.6391,-13.6036 259.139,-3.6036 255.6391,-13.6037 262.6391,-13.6036"/>
</g>
</g>
</svg>
