<?xml version="1.0" encoding="UTF-8" standalone="no"?>
<!DOCTYPE svg PUBLIC "-//W3C//DTD SVG 1.1//EN"
 "http://www.w3.org/Graphics/SVG/1.1/DTD/svg11.dtd">
<!-- Generated by graphviz version 2.43.0 (0)
 -->
<!-- Title: dag Pages: 1 -->
<svg width="563pt" height="887pt"
 viewBox="0.00 0.00 562.60 887.20" xmlns="http://www.w3.org/2000/svg" xmlns:xlink="http://www.w3.org/1999/xlink">
<g id="graph0" class="graph" transform="scale(1 1) rotate(0) translate(4 883.2)">
<title>dag</title>
<!-- p0 -->
<g id="node1" class="node">
<title>p0</title>
<ellipse fill="black" stroke="black" cx="163.6" cy="-860.6" rx="3.6" ry="3.6"/>
<text text-anchor="middle" x="80" y="-868" font-family="Times,serif" font-size="14.00">Channel.fromFilePairs</text>
</g>
<!-- p3 -->
<g id="node2" class="node">
<title>p3</title>
<ellipse fill="none" stroke="black" cx="163.6" cy="-788" rx="127.28" ry="18"/>
<text text-anchor="middle" x="163.6" y="-784.3" font-family="Times,serif" font-size="14.00">TRIM_COMBINE_MATES</text>
</g>
<!-- p0&#45;&gt;p3 -->
<g id="edge1" class="edge">
<title>p0&#45;&gt;p3</title>
<path fill="none" stroke="black" d="M163.6,-856.92C163.6,-850.25 163.6,-832.3 163.6,-816.53"/>
<polygon fill="black" stroke="black" points="167.1,-816.13 163.6,-806.13 160.1,-816.13 167.1,-816.13"/>
<text text-anchor="middle" x="195.6" y="-827.8" font-family="Times,serif" font-size="14.00">reads_ch</text>
</g>
<!-- p4 -->
<g id="node4" class="node">
<title>p4</title>
<ellipse fill="none" stroke="black" cx="237.6" cy="-701" rx="123.48" ry="18"/>
<text text-anchor="middle" x="237.6" y="-697.3" font-family="Times,serif" font-size="14.00">DEMULTIPLEX_PLATES</text>
</g>
<!-- p3&#45;&gt;p4 -->
<g id="edge4" class="edge">
<title>p3&#45;&gt;p4</title>
<path fill="none" stroke="black" d="M178.58,-769.8C189.38,-757.39 204.12,-740.46 216.17,-726.62"/>
<polygon fill="black" stroke="black" points="218.97,-728.73 222.9,-718.89 213.69,-724.13 218.97,-728.73"/>
</g>
<!-- p1 -->
<g id="node3" class="node">
<title>p1</title>
<ellipse fill="black" stroke="black" cx="312.6" cy="-788" rx="3.6" ry="3.6"/>
<text text-anchor="middle" x="374" y="-795.4" font-family="Times,serif" font-size="14.00">Channel.fromPath</text>
</g>
<!-- p1&#45;&gt;p4 -->
<g id="edge2" class="edge">
<title>p1&#45;&gt;p4</title>
<path fill="none" stroke="black" d="M310.81,-784.53C308.37,-781.17 303.79,-775.02 299.6,-770 287.21,-755.18 272.7,-739.19 260.83,-726.44"/>
<polygon fill="black" stroke="black" points="263.21,-723.87 253.82,-718.96 258.1,-728.65 263.21,-723.87"/>
<text text-anchor="middle" x="312.6" y="-740.8" font-family="Times,serif" font-size="14.00">plate_bc</text>
</g>
<!-- p5 -->
<g id="node7" class="node">
<title>p5</title>
<ellipse fill="none" stroke="black" cx="237.6" cy="-642.5" rx="3.5" ry="3.5"/>
<text text-anchor="middle" x="210.6" y="-649.8" font-family="Times,serif" font-size="14.00">flatten</text>
</g>
<!-- p4&#45;&gt;p5 -->
<g id="edge5" class="edge">
<title>p4&#45;&gt;p5</title>
<path fill="none" stroke="black" d="M237.6,-682.74C237.6,-674.16 237.6,-663.97 237.6,-656.12"/>
<polygon fill="black" stroke="black" points="241.1,-656.06 237.6,-646.06 234.1,-656.06 241.1,-656.06"/>
</g>
<!-- p2 -->
<g id="node5" class="node">
<title>p2</title>
<ellipse fill="black" stroke="black" cx="270.6" cy="-598.4" rx="3.6" ry="3.6"/>
<text text-anchor="middle" x="202" y="-605.8" font-family="Times,serif" font-size="14.00">Channel.fromPath</text>
</g>
<!-- p7 -->
<g id="node6" class="node">
<title>p7</title>
<ellipse fill="none" stroke="black" cx="253.6" cy="-540.3" rx="3.5" ry="3.5"/>
<text text-anchor="middle" x="219.6" y="-547.6" font-family="Times,serif" font-size="14.00">combine</text>
</g>
<!-- p2&#45;&gt;p7 -->
<g id="edge3" class="edge">
<title>p2&#45;&gt;p7</title>
<path fill="none" stroke="black" d="M269.78,-594.69C267.57,-587.39 261.36,-566.91 257.31,-553.55"/>
<polygon fill="black" stroke="black" points="260.62,-552.4 254.37,-543.85 253.92,-554.43 260.62,-552.4"/>
<text text-anchor="middle" x="291.1" y="-565.6" font-family="Times,serif" font-size="14.00">well_bc</text>
</g>
<!-- p8 -->
<g id="node9" class="node">
<title>p8</title>
<ellipse fill="none" stroke="black" cx="253.6" cy="-467.8" rx="120.48" ry="18"/>
<text text-anchor="middle" x="253.6" y="-464.1" font-family="Times,serif" font-size="14.00">DEMULTIPLEX_WELLS</text>
</g>
<!-- p7&#45;&gt;p8 -->
<g id="edge8" class="edge">
<title>p7&#45;&gt;p8</title>
<path fill="none" stroke="black" d="M253.6,-536.62C253.6,-529.96 253.6,-512.04 253.6,-496.29"/>
<polygon fill="black" stroke="black" points="257.1,-495.9 253.6,-485.9 250.1,-495.9 257.1,-495.9"/>
<text text-anchor="middle" x="317.1" y="-507.6" font-family="Times,serif" font-size="14.00">dmplxd_plates_ch</text>
</g>
<!-- p6 -->
<g id="node8" class="node">
<title>p6</title>
<ellipse fill="none" stroke="black" cx="237.6" cy="-598.4" rx="3.5" ry="3.5"/>
<text text-anchor="middle" x="216.6" y="-583.7" font-family="Times,serif" font-size="14.00">filter</text>
</g>
<!-- p5&#45;&gt;p6 -->
<g id="edge6" class="edge">
<title>p5&#45;&gt;p6</title>
<path fill="none" stroke="black" d="M237.6,-638.74C237.6,-633.45 237.6,-621.58 237.6,-612.25"/>
<polygon fill="black" stroke="black" points="241.1,-612.23 237.6,-602.23 234.1,-612.23 241.1,-612.23"/>
</g>
<!-- p6&#45;&gt;p7 -->
<g id="edge7" class="edge">
<title>p6&#45;&gt;p7</title>
<path fill="none" stroke="black" d="M238.37,-594.69C240.46,-587.39 246.3,-566.91 250.11,-553.55"/>
<polygon fill="black" stroke="black" points="253.5,-554.43 252.87,-543.85 246.76,-552.51 253.5,-554.43"/>
</g>
<!-- p9 -->
<g id="node10" class="node">
<title>p9</title>
<ellipse fill="none" stroke="black" cx="253.6" cy="-409.3" rx="3.5" ry="3.5"/>
<text text-anchor="middle" x="226.6" y="-416.6" font-family="Times,serif" font-size="14.00">flatten</text>
</g>
<!-- p8&#45;&gt;p9 -->
<g id="edge9" class="edge">
<title>p8&#45;&gt;p9</title>
<path fill="none" stroke="black" d="M253.6,-449.54C253.6,-440.96 253.6,-430.77 253.6,-422.92"/>
<polygon fill="black" stroke="black" points="257.1,-422.86 253.6,-412.86 250.1,-422.86 257.1,-422.86"/>
</g>
<!-- p10 -->
<g id="node11" class="node">
<title>p10</title>
<ellipse fill="none" stroke="black" cx="253.6" cy="-365.2" rx="3.5" ry="3.5"/>
<text text-anchor="middle" x="232.6" y="-372.5" font-family="Times,serif" font-size="14.00">filter</text>
</g>
<!-- p9&#45;&gt;p10 -->
<g id="edge10" class="edge">
<title>p9&#45;&gt;p10</title>
<path fill="none" stroke="black" d="M253.6,-405.54C253.6,-400.25 253.6,-388.38 253.6,-379.05"/>
<polygon fill="black" stroke="black" points="257.1,-379.03 253.6,-369.03 250.1,-379.03 257.1,-379.03"/>
</g>
<!-- p13 -->
<g id="node12" class="node">
<title>p13</title>
<ellipse fill="none" stroke="black" cx="346.6" cy="-292.6" rx="76.09" ry="18"/>
<text text-anchor="middle" x="346.6" y="-288.9" font-family="Times,serif" font-size="14.00">SPLIT_HEAVY</text>
</g>
<!-- p10&#45;&gt;p13 -->
<g id="edge11" class="edge">
<title>p10&#45;&gt;p13</title>
<path fill="none" stroke="black" d="M256.78,-363.45C265.1,-361.36 287.92,-354.93 303.6,-343.6 313.02,-336.79 321.74,-327.52 328.82,-318.8"/>
<polygon fill="black" stroke="black" points="331.73,-320.77 335.08,-310.72 326.19,-316.48 331.73,-320.77"/>
<text text-anchor="middle" x="380.1" y="-332.4" font-family="Times,serif" font-size="14.00">dmplxd_wells_ch</text>
</g>
<!-- p16 -->
<g id="node16" class="node">
<title>p16</title>
<ellipse fill="none" stroke="black" cx="160.6" cy="-292.6" rx="73.39" ry="18"/>
<text text-anchor="middle" x="160.6" y="-288.9" font-family="Times,serif" font-size="14.00">SPLIT_LIGHT</text>
</g>
<!-- p10&#45;&gt;p16 -->
<g id="edge15" class="edge">
<title>p10&#45;&gt;p16</title>
<path fill="none" stroke="black" d="M249.92,-364.3C237.97,-364.43 199.81,-363.23 178.6,-343.6 172.05,-337.54 167.88,-328.93 165.23,-320.55"/>
<polygon fill="black" stroke="black" points="168.56,-319.46 162.69,-310.64 161.78,-321.2 168.56,-319.46"/>
<text text-anchor="middle" x="239.1" y="-332.4" font-family="Times,serif" font-size="14.00">dmplxd_wells_ch</text>
</g>
<!-- p17 -->
<g id="node15" class="node">
<title>p17</title>
<ellipse fill="none" stroke="black" cx="243.6" cy="-234.1" rx="3.5" ry="3.5"/>
<text text-anchor="middle" x="226.6" y="-241.4" font-family="Times,serif" font-size="14.00">mix</text>
</g>
<!-- p13&#45;&gt;p17 -->
<g id="edge14" class="edge">
<title>p13&#45;&gt;p17</title>
<path fill="none" stroke="black" d="M317.91,-275.86C297.23,-264.52 270.4,-249.8 255.29,-241.51"/>
<polygon fill="black" stroke="black" points="256.76,-238.33 246.31,-236.59 253.39,-244.46 256.76,-238.33"/>
</g>
<!-- p11 -->
<g id="node13" class="node">
<title>p11</title>
<ellipse fill="black" stroke="black" cx="469.6" cy="-365.2" rx="3.6" ry="3.6"/>
</g>
<!-- p11&#45;&gt;p13 -->
<g id="edge12" class="edge">
<title>p11&#45;&gt;p13</title>
<path fill="none" stroke="black" d="M468.44,-361.55C465.45,-355 456.86,-337.93 444.6,-328.6 433.95,-320.49 421.25,-314.14 408.58,-309.21"/>
<polygon fill="black" stroke="black" points="409.53,-305.84 398.94,-305.72 407.15,-312.42 409.53,-305.84"/>
<text text-anchor="middle" x="476.6" y="-332.4" font-family="Times,serif" font-size="14.00">motif</text>
</g>
<!-- p12 -->
<g id="node14" class="node">
<title>p12</title>
<ellipse fill="black" stroke="black" cx="530.6" cy="-365.2" rx="3.6" ry="3.6"/>
</g>
<!-- p12&#45;&gt;p13 -->
<g id="edge13" class="edge">
<title>p12&#45;&gt;p13</title>
<path fill="none" stroke="black" d="M529.28,-361.84C525.55,-355.39 514.22,-337.36 499.6,-328.6 477.51,-315.37 450.89,-307.14 426.08,-302.02"/>
<polygon fill="black" stroke="black" points="426.43,-298.52 415.95,-300.07 425.11,-305.4 426.43,-298.52"/>
<text text-anchor="middle" x="535.1" y="-332.4" font-family="Times,serif" font-size="14.00">chain</text>
</g>
<!-- p18 -->
<g id="node19" class="node">
<title>p18</title>
<ellipse fill="none" stroke="black" cx="243.6" cy="-175.6" rx="134.58" ry="18"/>
<text text-anchor="middle" x="243.6" y="-171.9" font-family="Times,serif" font-size="14.00">COLLAPSE_RANK_PRUNE</text>
</g>
<!-- p17&#45;&gt;p18 -->
<g id="edge19" class="edge">
<title>p17&#45;&gt;p18</title>
<path fill="none" stroke="black" d="M243.6,-230.37C243.6,-225.43 243.6,-214.5 243.6,-203.77"/>
<polygon fill="black" stroke="black" points="247.1,-203.75 243.6,-193.75 240.1,-203.75 247.1,-203.75"/>
</g>
<!-- p16&#45;&gt;p17 -->
<g id="edge18" class="edge">
<title>p16&#45;&gt;p17</title>
<path fill="none" stroke="black" d="M184.61,-275.26C200.44,-264.48 220.44,-250.87 232.61,-242.58"/>
<polygon fill="black" stroke="black" points="234.95,-245.22 241.24,-236.7 231.01,-239.44 234.95,-245.22"/>
</g>
<!-- p14 -->
<g id="node17" class="node">
<title>p14</title>
<ellipse fill="black" stroke="black" cx="120.6" cy="-365.2" rx="3.6" ry="3.6"/>
</g>
<!-- p14&#45;&gt;p16 -->
<g id="edge16" class="edge">
<title>p14&#45;&gt;p16</title>
<path fill="none" stroke="black" d="M119.98,-361.45C118.72,-355.24 116.4,-339.82 121.6,-328.6 123.55,-324.4 126.26,-320.49 129.36,-316.91"/>
<polygon fill="black" stroke="black" points="132.02,-319.2 136.6,-309.65 127.06,-314.26 132.02,-319.2"/>
<text text-anchor="middle" x="140.6" y="-332.4" font-family="Times,serif" font-size="14.00">motif</text>
</g>
<!-- p15 -->
<g id="node18" class="node">
<title>p15</title>
<ellipse fill="black" stroke="black" cx="58.6" cy="-365.2" rx="3.6" ry="3.6"/>
</g>
<!-- p15&#45;&gt;p16 -->
<g id="edge17" class="edge">
<title>p15&#45;&gt;p16</title>
<path fill="none" stroke="black" d="M59.16,-361.58C60.68,-355.11 65.45,-338.2 75.6,-328.6 83.5,-321.12 93.21,-315.15 103.22,-310.4"/>
<polygon fill="black" stroke="black" points="104.68,-313.59 112.45,-306.39 101.88,-307.17 104.68,-313.59"/>
<text text-anchor="middle" x="95.1" y="-332.4" font-family="Times,serif" font-size="14.00">chain</text>
</g>
<!-- p19 -->
<g id="node20" class="node">
<title>p19</title>
<ellipse fill="none" stroke="black" cx="243.6" cy="-117.1" rx="3.5" ry="3.5"/>
<text text-anchor="middle" x="216.6" y="-124.4" font-family="Times,serif" font-size="14.00">collect</text>
</g>
<!-- p18&#45;&gt;p19 -->
<g id="edge20" class="edge">
<title>p18&#45;&gt;p19</title>
<path fill="none" stroke="black" d="M243.6,-157.34C243.6,-148.76 243.6,-138.57 243.6,-130.72"/>
<polygon fill="black" stroke="black" points="247.1,-130.66 243.6,-120.66 240.1,-130.66 247.1,-130.66"/>
</g>
<!-- p20 -->
<g id="node21" class="node">
<title>p20</title>
<ellipse fill="none" stroke="black" cx="243.6" cy="-58.6" rx="79.09" ry="18"/>
<text text-anchor="middle" x="243.6" y="-54.9" font-family="Times,serif" font-size="14.00">MERGE_BCRS</text>
</g>
<!-- p19&#45;&gt;p20 -->
<g id="edge21" class="edge">
<title>p19&#45;&gt;p20</title>
<path fill="none" stroke="black" d="M243.6,-113.37C243.6,-108.43 243.6,-97.5 243.6,-86.77"/>
<polygon fill="black" stroke="black" points="247.1,-86.75 243.6,-76.75 240.1,-86.75 247.1,-86.75"/>
</g>
<!-- p21 -->
<g id="node22" class="node">
<title>p21</title>
<ellipse fill="black" stroke="black" cx="243.6" cy="-1.8" rx="1.8" ry="1.8"/>
</g>
<!-- p20&#45;&gt;p21 -->
<g id="edge22" class="edge">
<title>p20&#45;&gt;p21</title>
<path fill="none" stroke="black" d="M243.6,-40.56C243.6,-31.87 243.6,-21.56 243.6,-13.9"/>
<polygon fill="black" stroke="black" points="247.1,-13.76 243.6,-3.76 240.1,-13.76 247.1,-13.76"/>
</g>
</g>
</svg>
